<svg width="54" height="54" viewBox="0 0 570 577" fill="none" xmlns="http://www.w3.org/2000/svg">
                                <path d="M297.5 9.52628L517.317 136.438C525.052 140.904 529.817 149.157 529.817 158.088V411.912C529.817 420.843 525.052 429.096 517.317 433.562L297.5 560.474C289.765 564.94 280.235 564.94 272.5 560.474L52.6828 433.562C44.9477 429.096 40.1828 420.843 40.1828 411.912V158.088C40.1828 149.157 44.9477 140.904 52.6828 136.438L272.5 9.52629C280.235 5.06046 289.765 5.06046 297.5 9.52628Z" fill="#7CC6FE" stroke="#08090A" stroke-width="4"></path>
                                <g filter="url(#filter0_d_1_16)">
                                    <path d="M144.906 193.836V175.477C144.906 170.138 146.664 165.711 150.18 162.195C153.695 158.68 158.122 156.922 163.461 156.922H411.312C416.651 156.922 421.078 158.68 424.594 162.195C428.109 165.711 429.867 170.138 429.867 175.477V193.836C429.867 199.174 428.109 203.602 424.594 207.117C421.078 210.503 416.651 212.195 411.312 212.195H324.203V419.031C324.203 424.109 322.38 428.406 318.734 431.922C315.219 435.307 310.922 437 305.844 437H268.93C263.852 437 259.49 435.307 255.844 431.922C252.328 428.406 250.57 424.109 250.57 419.031V212.195H163.461C158.122 212.195 153.695 210.503 150.18 207.117C146.664 203.602 144.906 199.174 144.906 193.836Z" fill="#F4FAFF"></path>
                                    <path d="M424.594 207.117L425.981 208.558C425.99 208.549 425.999 208.54 426.008 208.531L424.594 207.117ZM324.203 212.195V210.195C323.099 210.195 322.203 211.091 322.203 212.195H324.203ZM318.734 431.922L320.122 433.363L320.123 433.362L318.734 431.922ZM255.844 431.922L254.43 433.336C254.447 433.354 254.465 433.371 254.483 433.387L255.844 431.922ZM250.57 212.195H252.57C252.57 211.091 251.675 210.195 250.57 210.195V212.195ZM150.18 207.117L148.765 208.531C148.774 208.54 148.783 208.549 148.792 208.558L150.18 207.117ZM146.906 193.836V175.477H142.906V193.836H146.906ZM146.906 175.477C146.906 170.625 148.483 166.721 151.594 163.61L148.765 160.781C144.845 164.701 142.906 169.651 142.906 175.477H146.906ZM151.594 163.61C154.705 160.499 158.61 158.922 163.461 158.922V154.922C157.635 154.922 152.686 156.861 148.765 160.781L151.594 163.61ZM163.461 158.922H411.312V154.922H163.461V158.922ZM411.312 158.922C416.164 158.922 420.069 160.499 423.18 163.61L426.008 160.781C422.088 156.861 417.138 154.922 411.312 154.922V158.922ZM423.18 163.61C426.291 166.721 427.867 170.625 427.867 175.477H431.867C431.867 169.651 429.928 164.701 426.008 160.781L423.18 163.61ZM427.867 175.477V193.836H431.867V175.477H427.867ZM427.867 193.836C427.867 198.687 426.291 202.592 423.18 205.703L426.008 208.531C429.928 204.611 431.867 199.662 431.867 193.836H427.867ZM423.206 205.677C420.1 208.668 416.187 210.195 411.312 210.195V214.195C417.115 214.195 422.056 212.337 425.981 208.558L423.206 205.677ZM411.312 210.195H324.203V214.195H411.312V210.195ZM322.203 212.195V419.031H326.203V212.195H322.203ZM322.203 419.031C322.203 423.568 320.6 427.345 317.346 430.482L320.123 433.362C324.161 429.468 326.203 424.651 326.203 419.031H322.203ZM317.347 430.481C314.221 433.492 310.428 435 305.844 435V439C311.416 439 316.217 437.123 320.122 433.363L317.347 430.481ZM305.844 435H268.93V439H305.844V435ZM268.93 435C264.345 435 260.472 433.49 257.205 430.456L254.483 433.387C258.507 437.124 263.358 439 268.93 439V435ZM257.258 430.508C254.126 427.376 252.57 423.592 252.57 419.031H248.57C248.57 424.627 250.53 429.436 254.43 433.336L257.258 430.508ZM252.57 419.031V212.195H248.57V419.031H252.57ZM250.57 210.195H163.461V214.195H250.57V210.195ZM163.461 210.195C158.587 210.195 154.673 208.668 151.567 205.677L148.792 208.558C152.717 212.337 157.658 214.195 163.461 214.195V210.195ZM151.594 205.703C148.483 202.592 146.906 198.687 146.906 193.836H142.906C142.906 199.662 144.845 204.611 148.765 208.531L151.594 205.703Z" fill="black"></path>
                                </g>
                                <defs>
                                    <filter id="filter0_d_1_16" x="139.906" y="156.922" width="289.961" height="285.078" filterUnits="userSpaceOnUse" color-interpolation-filters="sRGB">
                                        <feFlood flood-opacity="0" result="BackgroundImageFix"></feFlood>
                                        <feColorMatrix in="SourceAlpha" type="matrix" values="0 0 0 0 0 0 0 0 0 0 0 0 0 0 0 0 0 0 127 0" result="hardAlpha"></feColorMatrix>
                                        <feOffset dx="-5" dy="5"></feOffset>
                                        <feComposite in2="hardAlpha" operator="out"></feComposite>
                                        <feColorMatrix type="matrix" values="0 0 0 0 0 0 0 0 0 0 0 0 0 0 0 0 0 0 1 0"></feColorMatrix>
                                        <feBlend mode="normal" in2="BackgroundImageFix" result="effect1_dropShadow_1_16"></feBlend>
                                        <feBlend mode="normal" in="SourceGraphic" in2="effect1_dropShadow_1_16" result="shape"></feBlend>
                                    </filter>
                                </defs>
                            </svg>